<?xml version="1.0" encoding="UTF-8" standalone="no"?>
<!-- Created with Inkscape (http://www.inkscape.org/) -->

<svg
   width="278.86603mm"
   height="266.43591mm"
   viewBox="0 0 278.86603 266.43593"
   version="1.1"
   id="svg1"
   inkscape:version="1.4 (e7c3feb100, 2024-10-09)"
   sodipodi:docname="logo_inkscape.svg"
   xml:space="preserve"
   inkscape:export-filename="logo.png"
   inkscape:export-xdpi="96"
   inkscape:export-ydpi="96"
   xmlns:inkscape="http://www.inkscape.org/namespaces/inkscape"
   xmlns:sodipodi="http://sodipodi.sourceforge.net/DTD/sodipodi-0.dtd"
   xmlns="http://www.w3.org/2000/svg"
   xmlns:svg="http://www.w3.org/2000/svg"><sodipodi:namedview
     id="namedview1"
     pagecolor="#ffffff"
     bordercolor="#000000"
     borderopacity="0.25"
     inkscape:showpageshadow="2"
     inkscape:pageopacity="0.0"
     inkscape:pagecheckerboard="0"
     inkscape:deskcolor="#d1d1d1"
     inkscape:document-units="mm"
     inkscape:zoom="1.0636706"
     inkscape:cx="445.15659"
     inkscape:cy="153.24292"
     inkscape:window-width="1920"
     inkscape:window-height="1011"
     inkscape:window-x="0"
     inkscape:window-y="0"
     inkscape:window-maximized="1"
     inkscape:current-layer="layer1"
     showguides="true"><sodipodi:guide
       position="262.52471,227.83473"
       orientation="0,-1"
       id="guide12"
       inkscape:locked="false" /><sodipodi:guide
       position="16.556117,161.68985"
       orientation="1,0"
       id="guide13"
       inkscape:locked="false" /><inkscape:page
       x="0"
       y="0"
       width="278.86603"
       height="266.43591"
       id="page16"
       margin="0"
       bleed="0" /><sodipodi:guide
       position="16.556118,161.68985"
       orientation="0,-1"
       id="guide19"
       inkscape:locked="false" /><sodipodi:guide
       position="262.57749,200.77527"
       orientation="1,0"
       id="guide3"
       inkscape:locked="false" /></sodipodi:namedview><defs
     id="defs1"><clipPath
       clipPathUnits="userSpaceOnUse"
       id="clipPath2"><rect
         style="fill:#f2f2f2;fill-opacity:1;stroke-width:19.1776;stroke-miterlimit:10;paint-order:stroke fill markers"
         id="rect2"
         width="100"
         height="66.145836"
         x="195.66454"
         y="84.620819"
         inkscape:label="background" /></clipPath><filter
       id="glow"
       x="-0.2"
       y="-0.2"
       width="1.4"
       height="1.4"><feGaussianBlur
         stdDeviation="1.5"
         result="blur"
         id="feGaussianBlur1" /><feMerge
         id="feMerge2"><feMergeNode
           in="blur"
           id="feMergeNode1" /><feMergeNode
           in="SourceGraphic"
           id="feMergeNode2" /></feMerge></filter><clipPath
       clipPathUnits="userSpaceOnUse"
       id="clipPath2-2"><rect
         style="fill:#f2f2f2;fill-opacity:1;stroke-width:19.1776;stroke-miterlimit:10;paint-order:stroke fill markers"
         id="rect2-4"
         width="100"
         height="66.145836"
         x="195.66454"
         y="84.620819"
         inkscape:label="background" /></clipPath></defs><g
     inkscape:label="Layer 1"
     inkscape:groupmode="layer"
     id="layer1"
     transform="translate(7.7759094,-0.7198311)"><g
       id="g7"
       inkscape:label="box_draft_1"
       style="display:inline"><rect
         style="fill:#f2f2f2;fill-opacity:1;stroke-width:15.5971;stroke-miterlimit:10;paint-order:stroke fill markers"
         id="rect1-5"
         width="66.145836"
         height="66.145836"
         x="8.7802076"
         y="39.320061"
         inkscape:label="background" /><path
         d="m 52.436427,58.140989 -3.4922,3.4922 3.4922,3.4922 3.4922,-3.4922 z"
         style="stroke-width:0.352778"
         id="path3" /><path
         d="m 22.450402,52.990047 v 17.639234 h 3.52795 17.638717 2.140954 4.914429 v 3.527433 h -3.527433 -3.52795 v 7.0559 h -3.52795 v -3.52795 -3.52795 h -3.527434 -10.583333 -3.52795 v 3.52795 3.52795 3.527433 7.0559 h 3.52795 v -7.0559 h 5.291667 l 5.291666,7.0559 h 3.527434 l -5.291667,-7.0559 h 3.874699 1.416968 3.52795 v 7.0559 h 3.52795 14.110766 v -3.52795 H 47.145019 v -3.52795 h 1.416967 12.693799 V 81.212614 H 48.561986 47.145019 v -3.52795 h 3.527433 3.52795 7.055383 v -3.52795 h -7.055383 v -3.527433 h 7.055383 V 67.101331 52.990047 H 57.728352 47.145019 43.617069 V 67.101331 H 25.978352 V 56.517997 h 14.110767 v -3.52795 H 25.978352 Z m 24.694617,3.52795 H 57.728352 V 67.101331 H 47.145019 Z M 25.978352,77.684664 h 10.583333 v 3.52795 H 25.978352 Z"
         style="stroke-width:0.352778"
         id="path2" /></g><g
       id="g3"
       inkscape:label="box"><rect
         style="display:inline;fill:#0e0019;fill-opacity:1;stroke-width:15.5971;stroke-miterlimit:10;paint-order:stroke fill markers"
         id="rect1-12-4"
         width="66.145836"
         height="66.145836"
         x="82.365784"
         y="39.319904"
         inkscape:label="background" /><g
         id="g61"
         inkscape:export-filename="g61.png"
         inkscape:export-xdpi="300"
         inkscape:export-ydpi="300"
         style="fill:#f2f2f2;fill-opacity:1"
         transform="translate(0.19292171,-75.002298)"
         inkscape:label="whole"><path
           d="m 99.371039,142.10345 v 3.52795 h 14.110771 v -3.52795 z"
           style="fill:#f2f2f2;fill-opacity:1;stroke-width:0.352778"
           id="path60" /><path
           d="m 99.371039,131.52012 h -3.52795 v 10.58333 h 3.52795 z"
           style="fill:#f2f2f2;fill-opacity:1;stroke-width:0.352778"
           id="path59" /><path
           d="m 99.371039,127.99217 v 3.52795 h 14.110771 v -3.52795 z"
           style="fill:#f2f2f2;fill-opacity:1;stroke-width:0.352778"
           id="path58" /><path
           d="m 123.35976,134.16595 v 4.93872 h 4.93871 v -4.93872 z"
           style="fill:#f2f2f2;fill-opacity:1;stroke-width:0.352778"
           id="path57" /><path
           d="m 120.53771,142.10345 v -10.58333 h -3.52795 v 10.58333 z"
           style="fill:#f2f2f2;fill-opacity:1;stroke-width:0.27326"
           id="path56" /><path
           d="m 120.53771,127.99217 v 3.52795 h 10.58333 v -3.52795 z"
           style="fill:#f2f2f2;fill-opacity:1;stroke-width:0.273261"
           id="path55" /><path
           d="m 131.12104,131.52012 v 10.58333 h 3.52743 v -10.58333 z"
           style="fill:#f2f2f2;fill-opacity:1;stroke-width:0.27326"
           id="path54" /><path
           d="m 131.12104,142.10345 h -10.58333 v 3.52795 h 10.58333 z"
           style="fill:#f2f2f2;fill-opacity:1;stroke-width:0.27326"
           id="path53" /><path
           d="m 120.53771,163.27012 v 3.52795 h 14.11076 v -3.52795 z"
           style="fill:#f2f2f2;fill-opacity:1;stroke-width:0.315534"
           id="path52" /><path
           d="m 120.53771,152.68678 h -3.52795 v 10.58334 h 3.52795 v -3.52795 h 14.11076 v -3.52744 h -14.11076 z"
           style="fill:#f2f2f2;fill-opacity:1;stroke-width:0.315534"
           id="path50" /><path
           d="m 120.53771,149.15883 v 3.52795 h 14.11076 v -3.52795 z"
           style="fill:#f2f2f2;fill-opacity:1;stroke-width:0.315534"
           id="path51"
           inkscape:label="path51" /><path
           d="m 99.371039,149.15883 v 3.52795 h 10.583331 v 3.52795 h 3.52744 v -3.52795 -3.52795 h -3.52744 z"
           style="fill:#f2f2f2;fill-opacity:1;stroke-width:0.288042"
           id="path49" /><path
           d="m 95.843089,152.68678 v 3.52795 3.52744 7.0559 h 3.52795 v -7.0559 h 5.291671 l 5.29166,7.0559 h 3.52744 l -5.29167,-7.0559 h 1.76423 v -3.52744 H 99.371039 v -3.52795 z"
           style="fill:#f2f2f2;fill-opacity:1;stroke-width:0.352778"
           id="path48" /></g><g
         id="g6"
         inkscape:label="parts"
         inkscape:export-filename="g6.png"
         inkscape:export-xdpi="300"
         inkscape:export-ydpi="300"
         style="display:none;fill:#0e0019;fill-opacity:1"
         transform="translate(0.19277624,-1.6100417e-4)"><path
           fill-rule="nonzero"
           fill="#9000ff"
           fill-opacity="1"
           d="m 128.29871,59.163836 h -4.9389 v 4.938896 h 4.93889 z"
           id="path28-8-6-8"
           style="fill:#0e0019;fill-opacity:1;stroke-width:0.352778"
           sodipodi:nodetypes="ccccc" /><path
           fill-rule="nonzero"
           fill="#9000ff"
           fill-opacity="1"
           d="m 99.370937,74.156858 h 14.111103 v 3.52778 H 99.370937 Z m 0,0"
           id="path4-5-1-0"
           style="fill:#0e0019;fill-opacity:1;stroke-width:0.315534" /><path
           fill-rule="nonzero"
           fill="#9000ff"
           fill-opacity="1"
           d="m 99.370937,77.684638 v 14.11112 h -3.52779 v -14.11112 z m 0,0"
           id="path6-6-8-8"
           style="fill:#0e0019;fill-opacity:1;stroke-width:0.315534" /><path
           fill-rule="nonzero"
           fill="#9000ff"
           fill-opacity="1"
           d="m 120.53759,67.101308 h 10.58334 v 3.52778 h -10.58334 z m 0,0"
           id="path7-1-4-8"
           style="fill:#0e0019;fill-opacity:1;stroke-width:0.27326" /><path
           fill-rule="nonzero"
           fill="#9000ff"
           fill-opacity="1"
           d="m 120.53759,52.990211 h 10.58334 v 3.527777 h -10.58334 z m 0,0"
           id="path8-8-9-0"
           style="fill:#0e0019;fill-opacity:1;stroke-width:0.273261" /><path
           fill-rule="nonzero"
           fill="#9000ff"
           fill-opacity="1"
           d="m 120.53759,56.517988 v 10.58332 h -3.52778 v -10.58332 z m 0,0"
           id="path9-9-6-6"
           style="fill:#0e0019;fill-opacity:1;stroke-width:0.27326" /><path
           fill-rule="nonzero"
           fill="#9000ff"
           fill-opacity="1"
           d="m 134.6487,56.517988 v 10.58332 h -3.52777 v -10.58332 z m 0,0"
           id="path10-2-3-8"
           style="fill:#0e0019;fill-opacity:1;stroke-width:0.27326" /><path
           fill-rule="nonzero"
           fill="#9000ff"
           fill-opacity="1"
           d="m 120.5376,88.267988 h 14.11111 v 3.52777 H 120.5376 Z m 0,0"
           id="path15-3-7-1"
           style="fill:#0e0019;fill-opacity:1;stroke-width:0.315534" /><path
           fill-rule="nonzero"
           fill="#9000ff"
           fill-opacity="1"
           d="m 120.53758,74.156858 h 14.11113 v 3.52778 h -14.11113 z m 0,0"
           id="path16-1-8-9"
           style="fill:#0e0019;fill-opacity:1;stroke-width:0.315534" /><path
           fill-rule="nonzero"
           fill="#9000ff"
           fill-opacity="1"
           d="m 108.19037,84.740208 5.29167,7.05555 h -3.52778 l -5.29166,-7.05555 z m 0,0"
           id="path19-3-0-2-8"
           style="fill:#0e0019;fill-opacity:1;stroke-width:0.352778" /><path
           fill-rule="nonzero"
           fill="#9000ff"
           fill-opacity="1"
           d="m 99.370937,74.156858 h 14.111103 v 3.52778 H 99.370937 Z m 0,0"
           id="path21-1-8-1-9"
           style="fill:#0e0019;fill-opacity:1;stroke-width:0.315534" /><path
           fill-rule="nonzero"
           fill="#9000ff"
           fill-opacity="1"
           d="m 113.48204,74.156858 v 7.05557 h -3.52778 v -7.05557 z m 0,0"
           id="path22-1-6-3-7"
           style="fill:#0e0019;fill-opacity:1;stroke-width:0.288042" /><path
           fill-rule="nonzero"
           fill="#9000ff"
           fill-opacity="1"
           d="M 109.95426,84.740208 H 95.843147 v -3.52778 h 14.111113 z m 0,0"
           id="path23-3-0-5-2"
           style="fill:#0e0019;fill-opacity:1;stroke-width:0.315534" /><path
           fill-rule="nonzero"
           fill="#9000ff"
           fill-opacity="1"
           d="m 120.5376,88.267988 h 14.1111 v 3.52777 h -14.1111 z m 0,0"
           id="path24-8-5-9-2"
           style="fill:#0e0019;fill-opacity:1;stroke-width:0.315534" /><path
           fill-rule="nonzero"
           fill="#9000ff"
           fill-opacity="1"
           d="m 120.53759,81.212428 h 14.11111 v 3.52778 h -14.11111 z m 0,0"
           id="path25-7-0-8-8"
           style="fill:#0e0019;fill-opacity:1;stroke-width:0.315534" /><path
           fill-rule="nonzero"
           fill="#9000ff"
           fill-opacity="1"
           d="m 120.53759,74.156858 h 14.11111 v 3.52778 h -14.11111 z m 0,0"
           id="path26-4-9-4-2"
           style="fill:#0e0019;fill-opacity:1;stroke-width:0.315534" /><path
           fill-rule="nonzero"
           fill="#9000ff"
           fill-opacity="1"
           d="m 120.53759,77.684638 v 10.58335 h -3.52777 v -10.58335 z m 0,0"
           id="path27-2-0-0-8"
           style="fill:#0e0019;fill-opacity:1;stroke-width:0.27326" /><path
           fill-rule="nonzero"
           fill="#9000ff"
           fill-opacity="1"
           d="M 113.48203,56.517986 H 99.37092 v -3.527778 h 14.11111 z m 0,0"
           id="path7-0"
           style="fill:#0e0019;fill-opacity:1;stroke-width:0.352778" /><path
           fill-rule="nonzero"
           fill="#9000ff"
           fill-opacity="1"
           d="M 113.48203,70.629087 H 99.37092 V 67.10131 h 14.11111 z m 0,0"
           id="path8-7"
           style="fill:#0e0019;fill-opacity:1;stroke-width:0.352778" /><path
           fill-rule="nonzero"
           fill="#9000ff"
           fill-opacity="1"
           d="M 95.84314,67.10131 V 56.517986 h 3.52778 V 67.10131 Z m 0,0"
           id="path9-8"
           style="fill:#0e0019;fill-opacity:1;stroke-width:0.352778" /></g></g><g
       id="g2"
       transform="translate(0.52556926,-0.43775049)"
       inkscape:label="line"><rect
         style="display:inline;fill:#0e0019;fill-opacity:1;stroke-width:19.1776;stroke-miterlimit:10;paint-order:stroke fill markers"
         id="rect1-12-6-2"
         width="100"
         height="66.145836"
         x="154.22322"
         y="39.758774"
         inkscape:label="background"
         inkscape:export-filename="rect1-12-6-2.png"
         inkscape:export-xdpi="300"
         inkscape:export-ydpi="300" /><g
         id="g60"
         style="fill:#f2f2f2;fill-opacity:1"
         transform="translate(-0.57834055,0.43889499)"
         inkscape:label="whole"><path
           d="m 167.76015,63.573437 v 3.52795 h 14.11076 v -3.52795 z"
           style="fill:#f2f2f2;fill-opacity:1;stroke-width:0.315534"
           id="path45" /><path
           d="m 167.76015,77.684721 v 3.527433 h 14.11076 v -3.527433 z"
           style="fill:#f2f2f2;fill-opacity:1;stroke-width:0.315534"
           id="path47" /><path
           d="m 167.76015,67.101387 h -3.52795 v 10.583334 h 3.52795 z"
           style="fill:#f2f2f2;fill-opacity:1;stroke-width:0.273261"
           id="path46" /><path
           d="m 199.51015,77.684721 h -10.58334 v 3.527433 h 10.58334 z"
           style="fill:#f2f2f2;fill-opacity:1;stroke-width:0.27326"
           id="path43" /><path
           d="m 188.92681,63.573437 v 3.52795 h 10.58334 v -3.52795 z"
           style="fill:#f2f2f2;fill-opacity:1;stroke-width:0.27326"
           id="path41" /><path
           d="m 199.51015,67.101387 v 10.583334 h 3.52743 V 67.101387 Z"
           style="fill:#f2f2f2;fill-opacity:1;stroke-width:0.273261"
           id="path40" /><path
           d="M 188.92681,77.684721 V 67.101387 h -3.52795 v 10.583334 z"
           style="fill:#f2f2f2;fill-opacity:1;stroke-width:0.273261"
           id="path42" /><path
           d="m 206.56553,67.101387 v 3.52795 3.527434 7.055383 h 3.52795 v -7.055383 h 5.29167 l 5.29166,7.055383 h 3.52744 l -5.29167,-7.055383 h 1.76423 v -3.527434 h -10.58333 v -3.52795 z"
           style="fill:#f2f2f2;fill-opacity:1;stroke-width:0.352778"
           id="path35" /><path
           d="m 210.09348,63.573437 v 3.52795 h 10.58333 v 3.52795 h 3.52744 v -3.52795 -3.52795 h -3.52744 z"
           style="fill:#f2f2f2;fill-opacity:1;stroke-width:0.288042"
           id="path36" /><path
           d="m 231.26015,77.684721 v 3.527433 h 14.11076 v -3.527433 z"
           style="fill:#f2f2f2;fill-opacity:1;stroke-width:0.315534"
           id="path39" /><path
           d="m 231.26015,67.101387 h -3.52795 v 3.52795 3.527434 3.52795 h 3.52795 v -3.52795 h 14.11076 v -3.527434 h -14.11076 z"
           style="fill:#f2f2f2;fill-opacity:1;stroke-width:0.352778"
           id="path37" /><path
           d="m 231.26015,63.573437 v 3.52795 h 14.11076 v -3.52795 z"
           style="fill:#f2f2f2;fill-opacity:1;stroke-width:0.315534"
           id="path38" /><path
           d="m 191.74886,69.923437 v 4.938717 h 4.93872 v -4.938717 z"
           style="fill:#f2f2f2;fill-opacity:1;stroke-width:0.352778"
           id="path44"
           inkscape:label="path44" /></g><g
         id="g1"
         style="display:none;fill:#3eda00;fill-opacity:1"
         transform="translate(-0.57837055,0.43872649)"
         inkscape:label="parts"><path
           fill-rule="nonzero"
           fill="#9000ff"
           fill-opacity="1"
           d="m 167.75992,63.573519 h 14.11111 v 3.52778 h -14.11111 z m 0,0"
           id="path4-1-9"
           style="fill:#3eda00;fill-opacity:1;stroke-width:0.315534" /><path
           fill-rule="nonzero"
           fill="#9000ff"
           fill-opacity="1"
           d="m 167.75992,77.684639 h 14.11111 v 3.52777 h -14.11111 z m 0,0"
           id="path5-6-2"
           style="fill:#3eda00;fill-opacity:1;stroke-width:0.315534" /><path
           fill-rule="nonzero"
           fill="#9000ff"
           fill-opacity="1"
           d="m 167.75992,67.101299 v 10.58334 h -3.52778 v -10.58334 z m 0,0"
           id="path6-5-4"
           style="fill:#3eda00;fill-opacity:1;stroke-width:0.273261" /><path
           fill-rule="nonzero"
           fill="#9000ff"
           fill-opacity="1"
           d="m 188.92659,77.684639 h 10.58333 v 3.52777 h -10.58333 z m 0,0"
           id="path15-7-6"
           style="fill:#3eda00;fill-opacity:1;stroke-width:0.27326" /><path
           fill-rule="nonzero"
           fill="#9000ff"
           fill-opacity="1"
           d="m 188.92659,63.573519 h 10.58333 v 3.52778 h -10.58333 z m 0,0"
           id="path16-5-1"
           style="fill:#3eda00;fill-opacity:1;stroke-width:0.27326" /><path
           fill-rule="nonzero"
           fill="#9000ff"
           fill-opacity="1"
           d="m 203.0377,67.101299 v 10.58334 h -3.52778 v -10.58334 z m 0,0"
           id="path17-4-8"
           style="fill:#3eda00;fill-opacity:1;stroke-width:0.273261" /><path
           fill-rule="nonzero"
           fill="#9000ff"
           fill-opacity="1"
           d="m 188.92659,67.101299 v 10.58334 h -3.52778 v -10.58334 z m 0,0"
           id="path18-1-2"
           style="fill:#3eda00;fill-opacity:1;stroke-width:0.273261" /><path
           fill-rule="nonzero"
           fill="#9000ff"
           fill-opacity="1"
           d="m 218.9127,74.156859 5.29167,7.05555 h -3.52778 l -5.29167,-7.05555 z m 0,0"
           id="path19-2-1"
           style="fill:#3eda00;fill-opacity:1;stroke-width:0.352778" /><path
           fill-rule="nonzero"
           fill="#9000ff"
           fill-opacity="1"
           d="m 210.09326,67.101299 v 14.11111 h -3.52778 v -14.11111 z m 0,0"
           id="path20-0-1"
           style="fill:#3eda00;fill-opacity:1;stroke-width:0.315534" /><path
           fill-rule="nonzero"
           fill="#9000ff"
           fill-opacity="1"
           d="m 210.09326,63.573519 h 14.11111 v 3.52778 h -14.11111 z m 0,0"
           id="path21-0-9"
           style="fill:#3eda00;fill-opacity:1;stroke-width:0.315534" /><path
           fill-rule="nonzero"
           fill="#9000ff"
           fill-opacity="1"
           d="m 224.20437,63.573519 v 7.05556 h -3.52778 v -7.05556 z m 0,0"
           id="path22-1-7"
           style="fill:#3eda00;fill-opacity:1;stroke-width:0.288042" /><path
           fill-rule="nonzero"
           fill="#9000ff"
           fill-opacity="1"
           d="m 220.67659,74.156859 h -14.11111 v -3.52778 h 14.11111 z m 0,0"
           id="path23-4-6"
           style="fill:#3eda00;fill-opacity:1;stroke-width:0.315534" /><path
           fill-rule="nonzero"
           fill="#9000ff"
           fill-opacity="1"
           d="m 231.25992,77.684639 h 14.11111 v 3.52777 h -14.11111 z m 0,0"
           id="path24-6-2"
           style="fill:#3eda00;fill-opacity:1;stroke-width:0.315534" /><path
           fill-rule="nonzero"
           fill="#9000ff"
           fill-opacity="1"
           d="m 227.73215,70.629079 h 17.63888 v 3.52778 h -17.63888 z m 0,0"
           id="path25-0-9"
           style="fill:#3eda00;fill-opacity:1;stroke-width:0.352778" /><path
           fill-rule="nonzero"
           fill="#9000ff"
           fill-opacity="1"
           d="m 231.25992,63.573519 h 14.11111 v 3.52778 h -14.11111 z m 0,0"
           id="path26-7-5"
           style="fill:#3eda00;fill-opacity:1;stroke-width:0.315534" /><path
           fill-rule="nonzero"
           fill="#9000ff"
           fill-opacity="1"
           d="m 231.25992,67.101299 v 10.58334 h -3.52777 v -10.58334 z m 0,0"
           id="path27-1-2"
           style="fill:#3eda00;fill-opacity:1;stroke-width:0.273261" /><path
           fill-rule="nonzero"
           fill="#9000ff"
           fill-opacity="1"
           d="m 196.6877,69.923509 1e-5,4.9389 h -4.93891 l 1e-5,-4.9389 z m 0,0"
           id="path28-7-0"
           style="fill:#3eda00;fill-opacity:1;stroke-width:0.352778" /></g></g><g
       id="g4"
       inkscape:label="colors"><path
         fill-rule="nonzero"
         fill="#9000ff"
         fill-opacity="1"
         d="M 88.780212,7.5077097 H 108.78021 V 27.507709 H 88.780212 Z m 0,0"
         id="path25-7-0-8-8-9-5-1-2"
         style="fill:#f2f2f2;fill-opacity:1;stroke-width:0.894428"
         inkscape:label="color_white" /><path
         fill-rule="nonzero"
         fill="#9000ff"
         fill-opacity="1"
         d="M 68.780216,7.5077098 H 88.780212 V 27.507709 H 68.780216 Z m 0,0"
         id="path25-7-0-8-8-9-5-1"
         style="fill:#0e0019;fill-opacity:1;stroke-width:0.894428"
         inkscape:label="color_black" /><path
         fill-rule="nonzero"
         fill="#9000ff"
         fill-opacity="1"
         d="m 28.780206,7.5077095 h 20 V 27.507709 h -20 z m 0,0"
         id="path25-7-0-8-8-9-5"
         style="fill:#3eda00;fill-opacity:1;stroke-width:0.894428"
         inkscape:label="color_green" /><path
         fill-rule="nonzero"
         fill="#9000ff"
         fill-opacity="1"
         d="m 48.780206,7.5077095 h 20.00001 V 27.507709 h -20.00001 z m 0,0"
         id="path25-7-0-8-8-9-5-3"
         style="fill:#ff731c;fill-opacity:1;stroke-width:0.894428"
         inkscape:label="color_orange" /><path
         fill-rule="nonzero"
         fill="#9000ff"
         fill-opacity="1"
         d="M 28.780206,7.5077095 V 27.507709 H 8.7802065 V 7.5077095 Z m 0,0"
         id="path18-1"
         style="fill:#9000ff;fill-opacity:1;stroke-width:0.894428"
         inkscape:label="color_purple" /></g></g></svg>
